{"title":"Gran Torino (2008) + Bonus 15'  XviD - Ita Eng Ac3 5.1 - Sub Ita","uid":8455681,"size":2113398121,"categoryP":"video","categoryS":"movies","magnet":"?xt=urn:btih:b748fa6c0e2ac56cfbb3358ace2aca9225d1d20f&amp;dn=Gran+Torino+%282008%29+%2B+Bonus+15%27++XviD+-+Ita+Eng+Ac3+5.1+-+Sub+Ita&amp;tr=udp%3A%2F%2Ftracker.openbittorrent.com%3A80&amp;tr=udp%3A%2F%2Fopen.demonii.com%3A1337&amp;tr=udp%3A%2F%2Ftracker.coppersurfer.tk%3A6969&amp;tr=udp%3A%2F%2Fexodus.desync.com%3A6969","seeders":0,"leechers":0,"uploader":null,"files":9,"time":1368059538,"description":"\nGeneral\nComplete name : Gran Torino (2008)Gran Torino (2008).avi\nFormat : AVI\nFormat/Info : Audio Video Interleave\nFile size : 1.81 GiB\nDuration : 1h 51mn\nOverall bit rate : 2 312 Kbps\nWriting application : VirtualDubMod 1.5.4.1 (build 2178/release)\nWriting library : VirtualDubMod build 2178/release\n\nVideo\nID : 0\nFormat : MPEG-4 Visual\nFormat profile : Advanced Simple@L5\nFormat settings, BVOP : No\nFormat settings, QPel : No\nFormat settings, GMC : No warppoints\nFormat settings, Matrix : Custom\nCodec ID : XVID\nCodec ID/Hint : XviD\nDuration : 1h 51mn\nBit rate : 1 536 Kbps\nWidth : 720 pixels\nHeight : 304 pixels\nDisplay aspect ratio : 2.35:1\nFrame rate : 25.000 fps\nColor space : YUV\nChroma subsampling : 4:2:0\nBit depth : 8 bits\nScan type : Progressive\nBits/(Pixel*Frame) : 0.281\nStream size : 1.20 GiB (66%)\nWriting library : XviD 1.2.1 (UTC 2008-12-04)\n\nAudio #1\nID : 1\nFormat : AC-3\nFormat/Info : Audio Coding 3\nMode extension : CM (complete main)\nCodec ID : 2000\nDuration : 1h 51mn\nBit rate mode : Constant\nBit rate : 384 Kbps\nChannel(s) : 6 channels\nChannel positions : Front: L C R, Side: L R, LFE\nSampling rate : 48.0 KHz\nBit depth : 16 bits\nVideo delay : 24ms\nStream size : 307 MiB (17%)\nAlignment : Split accross interleaves\nInterleave, duration : 96 ms (2.40 video frames)\nInterleave, preload duration : 96 ms\nLanguage : Italian\n\nAudio #2\nID : 2\nFormat : AC-3\nFormat/Info : Audio Coding 3\nMode extension : CM (complete main)\nCodec ID : 2000\nDuration : 1h 51mn\nBit rate mode : Constant\nBit rate : 384 Kbps\nChannel(s) : 6 channels\nChannel positions : Front: L C R, Side: L R, LFE\nSampling rate : 48.0 KHz\nBit depth : 16 bits\nVideo delay : 24ms\nStream size : 307 MiB (17%)\nAlignment : Split accross interleaves\nInterleave, duration : 96 ms (2.40 video frames)\nInterleave, preload duration : 96 ms\nLanguage : English","torrent":{"xt":"urn:btih:b748fa6c0e2ac56cfbb3358ace2aca9225d1d20f","amp;dn":"Gran+Torino+%282008%29+%2B+Bonus+15%27++XviD+-+Ita+Eng+Ac3+5.1+-+Sub+Ita","amp;tr":["udp%3A%2F%2Ftracker.openbittorrent.com%3A80","udp%3A%2F%2Fopen.demonii.com%3A1337","udp%3A%2F%2Ftracker.coppersurfer.tk%3A6969","udp%3A%2F%2Fexodus.desync.com%3A6969"],"infoHash":"b748fa6c0e2ac56cfbb3358ace2aca9225d1d20f","infoHashBuffer":{"type":"Buffer","data":[183,72,250,108,14,42,197,108,251,179,53,138,206,42,202,146,37,209,210,15]},"announce":[],"urlList":[]}}